<?xml version="1.0" encoding="utf-8"?>
<!-- Generator: Adobe Illustrator 19.2.1, SVG Export Plug-In . SVG Version: 6.00 Build 0)  -->
<!DOCTYPE svg PUBLIC "-//W3C//DTD SVG 1.1//EN" "http://www.w3.org/Graphics/SVG/1.1/DTD/svg11.dtd">
<svg version="1.1" id="Layer_1" xmlns="http://www.w3.org/2000/svg" xmlns:xlink="http://www.w3.org/1999/xlink" x="0px" y="0px"
	 viewBox="0 0 24 24" style="enable-background:new 0 0 24 24;" xml:space="preserve">
<style type="text/css">
	.st0{fill:#FFFFFF;}
</style>
<title>close</title>
<g>
	<path class="st0" d="M12,22.5C6.2,22.5,1.5,17.8,1.5,12S6.2,1.5,12,1.5S22.5,6.2,22.5,12C22.5,17.8,17.8,22.5,12,22.5z"/>
</g>
<g>
	<path d="M12,2c5.5,0,10,4.5,10,10s-4.5,10-10,10S2,17.5,2,12S6.5,2,12,2 M12,1C5.9,1,1,5.9,1,12s4.9,11,11,11s11-4.9,11-11
		S18.1,1,12,1L12,1z"/>
</g>
<g>
	<path d="M7,17.7c-0.1,0-0.3-0.1-0.4-0.1c-0.1-0.1-0.2-0.3-0.1-0.5l1.6-6.3c0-0.2,0.2-0.3,0.4-0.4c0.2,0,0.4,0,0.5,0.1l4.7,4.7
		c0.1,0.1,0.2,0.3,0.1,0.5c0,0.2-0.2,0.3-0.4,0.4l-6.3,1.6C7.1,17.7,7,17.7,7,17.7z M8.8,11.9l-1.2,4.6l4.6-1.2L8.8,11.9z"/>
</g>
<g>
	<path d="M15.6,13.8c-0.1,0-0.3-0.1-0.4-0.1l-4.7-4.7c-0.1-0.1-0.2-0.3-0.1-0.5c0-0.2,0.2-0.3,0.4-0.4l6.3-1.6c0.2,0,0.4,0,0.5,0.1
		s0.2,0.3,0.1,0.5l-1.6,6.3c0,0.2-0.2,0.3-0.4,0.4C15.7,13.8,15.7,13.8,15.6,13.8z M11.9,8.8l3.5,3.5l1.2-4.6L11.9,8.8z"/>
</g>
<g>
	<path d="M12,2c5.5,0,10,4.5,10,10s-4.5,10-10,10S2,17.5,2,12S6.5,2,12,2 M12,1C5.9,1,1,5.9,1,12s4.9,11,11,11s11-4.9,11-11
		S18.1,1,12,1L12,1z"/>
</g>
</svg>
