<svg id="Layer_1" data-name="Layer 1" xmlns="http://www.w3.org/2000/svg" viewBox="0 0 631.3 165.28"><defs><style>.cls-1{fill:#20e4bf;}.cls-2{fill:#3b3c3d;}</style></defs><title>mindly_logo</title><path class="cls-1" d="M206.25,118.49V63.08A11.16,11.16,0,1,0,195,44.13L161.22,23.24a11.23,11.23,0,0,0,.08-1.34h0a11.16,11.16,0,1,0-19.53,7.36L113.89,79.05a11.18,11.18,0,0,0-4.49,0L81.54,29.27A11.15,11.15,0,1,0,62,21.9h0a11.25,11.25,0,0,0,.08,1.34L28.27,44.13A11.16,11.16,0,1,0,17.06,63.08v55.41a11.16,11.16,0,0,0,7.13,21.12l14,19a11.16,11.16,0,1,0,20.14,3.88l8.74-5.41a11.16,11.16,0,1,0,10-19.79V96.87l24.38,23.45a11.16,11.16,0,1,0,20.14.11l24.5-23.56v40.42a11.16,11.16,0,1,0,10,19.78l8.74,5.41a11.16,11.16,0,1,0,20.14-3.88l14-19A11.16,11.16,0,0,0,206.25,118.49Zm-56.38,29.79h0Zm11.42-.57a11.16,11.16,0,0,0-7.71-10.61V89.73l16.7-16.06a11.13,11.13,0,0,0,1.35.66v80.21a11.15,11.15,0,0,0-2.78,1.64l-8.1-5A11.15,11.15,0,0,0,161.3,147.72Zm-49.82-22.64h0Zm5-9.93a11.17,11.17,0,0,0-9.65-.05L77.15,86.57V79.94l23.28,9.66c0,0.12,0,.25,0,0.37a11.16,11.16,0,0,0,22.31,0c0-.1,0-0.2,0-0.3l23.44-9.72v6.63Zm-43,33.64h0Zm0-.5h0ZM69.72,137.1a11.16,11.16,0,0,0-7.17,14.06l-8.1,5a11.14,11.14,0,0,0-2.78-1.64V74.33A11.12,11.12,0,0,0,53,73.67l16.7,16.06V137.1Zm-49-4.27h0Zm11.49-3.94a11.16,11.16,0,0,0-7.78-10.63V63.31a11.16,11.16,0,0,0,4.92-3.18L36.35,63c0,0.32,0,.65,0,1a11.16,11.16,0,0,0,7.95,10.69v79.5l-0.05,0-14-18.9A11.1,11.1,0,0,0,32.26,128.89ZM48,165.8h0ZM69.72,76.86v2.57L65,74.91Zm76.44-5L120.43,82.58l25.74-46V71.9ZM72.83,21h0Zm4.31,15.64,25.74,46L77.15,71.9V36.61Zm125.7,16.71h0Zm-44.55,21.6-4.7,4.52V76.86Zm17.06,90.89h0Zm3.71-11.62V74.68A11.16,11.16,0,0,0,187,64c0-.33,0-0.66,0-1l6.95-2.88a11.16,11.16,0,0,0,4.92,3.18v54.94a11.15,11.15,0,0,0-5.75,17l-14,18.9Zm23.48-21.35h0ZM191.07,53.28l-7.19,3A11.15,11.15,0,0,0,164.7,64c0,0.07,0,.14,0,0.22l-11.11,4.61V32.52a11.15,11.15,0,0,0,4.31-2.6l33.36,20.61a11.2,11.2,0,0,0-.21,2.16C191.05,52.88,191.06,53.08,191.07,53.28ZM65.41,29.92a11.15,11.15,0,0,0,4.31,2.6V68.82L58.61,64.22c0-.07,0-0.14,0-0.22a11.15,11.15,0,0,0-19.19-7.74l-7.19-3c0-.2,0-0.4,0-0.6A11.19,11.19,0,0,0,32,50.52Z" transform="translate(-9.95 -10.75)"/><path class="cls-2" d="M257.08,59.26a1.9,1.9,0,0,1,1.79-1.59h1.59a2.19,2.19,0,0,1,1.69,1l23,42.85h0.2l23-42.85a2.19,2.19,0,0,1,1.69-1h1.59a1.9,1.9,0,0,1,1.79,1.59l11.21,66.66a1.82,1.82,0,0,1-1.88,2.18H311a2,2,0,0,1-1.88-1.59l-4.46-30.65h-0.2L287.83,128a2.32,2.32,0,0,1-1.69,1.09h-1.79a2.16,2.16,0,0,1-1.69-1.09L265.91,95.87h-0.2l-4.36,30.65a1.93,1.93,0,0,1-1.88,1.59h-11.7a1.82,1.82,0,0,1-1.88-2.18Z" transform="translate(-9.95 -10.75)"/><path class="cls-2" d="M342.28,60.55a2,2,0,0,1,1.88-1.88h11.9A2,2,0,0,1,358,60.55v65.66a2,2,0,0,1-1.88,1.88h-11.9a2,2,0,0,1-1.88-1.88V60.55Z" transform="translate(-9.95 -10.75)"/><path class="cls-2" d="M379.87,59.46a1.87,1.87,0,0,1,1.88-1.79h2.48l39.58,38.09h0.1V60.55a1.88,1.88,0,0,1,1.88-1.88h11.9a2,2,0,0,1,1.88,1.88v66.75a1.86,1.86,0,0,1-1.88,1.79h-1.59a2.92,2.92,0,0,1-1.29-.5L395.64,89.22h-0.1v37a1.88,1.88,0,0,1-1.88,1.88h-11.8a2,2,0,0,1-1.88-1.88Z" transform="translate(-9.95 -10.75)"/><path class="cls-2" d="M461.6,60.55a1.86,1.86,0,0,1,1.79-1.88h24.2a34.72,34.72,0,1,1,0,69.43h-24.2a1.86,1.86,0,0,1-1.79-1.88V60.55Zm25,52.87c11.21,0,19.34-8.83,19.34-20.14s-8.13-20-19.34-20h-9.52v40.17h9.52Z" transform="translate(-9.95 -10.75)"/><path class="cls-2" d="M539.46,60.55a1.88,1.88,0,0,1,1.88-1.88h11.8A2,2,0,0,1,555,60.55v53h23.61a1.88,1.88,0,0,1,1.88,1.88v10.81a1.88,1.88,0,0,1-1.88,1.88h-37.3a1.88,1.88,0,0,1-1.88-1.88V60.55Z" transform="translate(-9.95 -10.75)"/><path class="cls-2" d="M603.14,94.67L581.22,61.55a1.84,1.84,0,0,1,1.59-2.88H595.7a2,2,0,0,1,1.59.89L611.08,79.9l13.79-20.33a1.83,1.83,0,0,1,1.59-.89h12.89a1.84,1.84,0,0,1,1.59,2.88l-22.22,33v31.64a2,2,0,0,1-1.88,1.88H605a1.88,1.88,0,0,1-1.88-1.88V94.67Z" transform="translate(-9.95 -10.75)"/></svg>