<?xml version="1.0" encoding="utf-8"?>
<!-- Generator: Adobe Illustrator 19.2.1, SVG Export Plug-In . SVG Version: 6.00 Build 0)  -->
<!DOCTYPE svg PUBLIC "-//W3C//DTD SVG 1.1//EN" "http://www.w3.org/Graphics/SVG/1.1/DTD/svg11.dtd">
<svg version="1.1" id="Layer_1" xmlns="http://www.w3.org/2000/svg" xmlns:xlink="http://www.w3.org/1999/xlink" x="0px" y="0px"
	 viewBox="0 0 28 18" style="enable-background:new 0 0 28 28;" xml:space="preserve">
<g>
	<path d="M16.5,21h-5c-2,0-3.5-1.5-3.5-3.5v-8C8,7.5,9.5,6,11.5,6h5c2,0,3.5,1.5,3.5,3.5v8C20,19.5,18.5,21,16.5,21z M11.5,7
		C10.1,7,9,8.1,9,9.5v8c0,1.4,1.1,2.5,2.5,2.5h5c1.4,0,2.5-1.1,2.5-2.5v-8C19,8.1,17.9,7,16.5,7H11.5z"/>
</g>
<g>
	<path d="M17.5,11h-7c-0.3,0-0.5-0.2-0.5-0.5s0.2-0.5,0.5-0.5h7c0.3,0,0.5,0.2,0.5,0.5S17.8,11,17.5,11z"/>
</g>
<g>
	<path d="M17.5,13h-7c-0.3,0-0.5-0.2-0.5-0.5s0.2-0.5,0.5-0.5h7c0.3,0,0.5,0.2,0.5,0.5S17.8,13,17.5,13z"/>
</g>
<g>
	<path d="M17.5,15h-7c-0.3,0-0.5-0.2-0.5-0.5s0.2-0.5,0.5-0.5h7c0.3,0,0.5,0.2,0.5,0.5S17.8,15,17.5,15z"/>
</g>
<g>
	<path d="M17.5,17h-7c-0.3,0-0.5-0.2-0.5-0.5s0.2-0.5,0.5-0.5h7c0.3,0,0.5,0.2,0.5,0.5S17.8,17,17.5,17z"/>
</g>
</svg>
