<?xml version="1.0" encoding="utf-8"?>
<!-- Generator: Adobe Illustrator 19.2.1, SVG Export Plug-In . SVG Version: 6.00 Build 0)  -->
<!DOCTYPE svg PUBLIC "-//W3C//DTD SVG 1.1//EN" "http://www.w3.org/Graphics/SVG/1.1/DTD/svg11.dtd">
<svg version="1.1" xmlns="http://www.w3.org/2000/svg" xmlns:xlink="http://www.w3.org/1999/xlink" x="0px" y="0px"
	 viewBox="0 0 24 24" style="enable-background:new 0 0 24 24;" xml:space="preserve">
<style type="text/css">
	.st0{fill:#FFFFFF;}
</style>
<g id="Layer_5">
	<g>
		<path class="st0" d="M12,2c5.5,0,10,4.5,10,10s-4.5,10-10,10S2,17.5,2,12S6.5,2,12,2"/>
	</g>
</g>
<g id="Layer_1_copy">
	<title>close</title>
	<g>
		<path d="M15.5,17h-7C7.1,17,6,15.9,6,14.5v-5C6,8.1,7.1,7,8.5,7h3C11.8,7,12,7.2,12,7.5S11.8,8,11.5,8h-3C7.7,8,7,8.7,7,9.5v5
			C7,15.3,7.7,16,8.5,16h7c0.8,0,1.5-0.7,1.5-1.5v-1c0-0.3,0.2-0.5,0.5-0.5s0.5,0.2,0.5,0.5v1C18,15.9,16.9,17,15.5,17z"/>
	</g>
	<path d="M17.5,7h-3.9c-0.3,0-0.5,0.2-0.5,0.5S13.3,8,13.6,8h2.7l-5.1,5.1c-0.2,0.2-0.2,0.5,0,0.7c0.1,0.1,0.2,0.1,0.4,0.1
		s0.3,0,0.4-0.1L17,8.7V11c0,0.3,0.2,0.5,0.5,0.5S18,11.3,18,11V7.5C18,7.2,17.8,7,17.5,7z"/>
	<g>
		<path d="M12,2c5.5,0,10,4.5,10,10s-4.5,10-10,10S2,17.5,2,12S6.5,2,12,2 M12,1C5.9,1,1,5.9,1,12s4.9,11,11,11s11-4.9,11-11
			S18.1,1,12,1L12,1z"/>
	</g>
</g>
</svg>
