<?xml version="1.0" encoding="utf-8"?>
<!-- Generator: Adobe Illustrator 19.2.1, SVG Export Plug-In . SVG Version: 6.00 Build 0)  -->
<!DOCTYPE svg PUBLIC "-//W3C//DTD SVG 1.1//EN" "http://www.w3.org/Graphics/SVG/1.1/DTD/svg11.dtd">
<svg version="1.1" id="Layer_2" xmlns="http://www.w3.org/2000/svg" xmlns:xlink="http://www.w3.org/1999/xlink" x="0px" y="0px"
	 viewBox="0 0 28 28" style="enable-background:new 0 0 28 28;" xml:space="preserve">
<style type="text/css">
	.st0{fill:none;stroke:#FFFFFF;stroke-linecap:round;}
</style>
<path class="st0" d="M16.6,15.6c-1.2,0.5-2.6,0.2-3.5-0.7l0,0c-1.3-1.3-1.3-3.4,0-4.6l2.8-2.8c1.3-1.3,3.4-1.3,4.6,0l0,0
	c1.3,1.3,1.3,3.4,0,4.6l-1.9,1.9"/>
<path class="st0" d="M12.3,11.4c1.2-0.5,2.6-0.2,3.5,0.7l0,0c1.3,1.3,1.3,3.4,0,4.6L13,19.6c-1.3,1.3-3.4,1.3-4.6,0l0,0
	c-1.3-1.3-1.3-3.4,0-4.6l1.9-1.9"/>
</svg>
